<?xml version="1.0" encoding="UTF-8"?>
<svg width="64" height="64" viewBox="0 0 64 64" xmlns="http://www.w3.org/2000/svg" aria-hidden="true">
  
  <!-- Face circle -->
  <circle cx="32" cy="34" r="21" fill="#ebd9c6cf" stroke="#333" stroke-width="1"/>

    <g transform="translate(29,41) scale(1.05) translate(-29,-42)">
    <!-- Tuque (hat) -->
    <path d="M12,24 C12,14 22,8 32,8 C42,8 52,14 52,24 L12,24 Z" fill="#00b496ff" stroke="#1717175f" stroke-width="3"/>
    <!-- Tuque rib -->
    <rect x="9" y="23" width="46" height="11" fill="#00b496ff" stroke="#1717175f" stroke-width="3"/>
    </g>

  <!-- Eyes (assertive) -->
  <path d="M26 34 l -1 -1" stroke="#111" stroke-width="6" stroke-linecap="round"/>
  <path d="M38 34 l 1 -1" stroke="#111" stroke-width="6" stroke-linecap="round"/>

  <!-- Brows -->
  <path d="M28 30 l -9 -4" stroke="#333" stroke-width="3" stroke-linecap="round"/>
  <path d="M36 30 l 9 -4" stroke="#333" stroke-width="3" stroke-linecap="round"/>

  <!-- Moustache -->
<g transform="translate(32,41) scale(1.25) translate(-32,-42)">
    <path d="M22,42 
     C22,38 28,40 32,42
     C36,40 42,38 46,42
     C44,46 38,47 32,47
     C26,47 20,46 18,42
     C19,37 21,39 22,40
     C20,36 19,37 18,39
    Z" 
    fill="#333"/>
</g>

  <!-- Mouth (flat/firm) -->
  <path d="M34 49 H 30" stroke="#111" stroke-width="5" stroke-linecap="round"/>

</svg>

